<svg width="28" height="22" viewBox="0 0 28 22" fill="none" xmlns="http://www.w3.org/2000/svg">
<path d="M10.3375 0L12.2575 2.016C9.6975 4.128 8.0335 5.888 7.2655 7.296C6.4975 8.704 6.0175 9.856 5.8255 10.752L6.0175 11.04C6.0815 11.04 6.1455 11.04 6.2095 11.04C6.2735 11.04 6.3695 11.008 6.4975 10.944C6.5615 10.944 6.6255 10.944 6.6895 10.944C6.7535 10.944 6.8175 10.944 6.8815 10.944C8.4815 11.008 9.7615 11.488 10.7215 12.384C11.7455 13.28 12.2575 14.56 12.2575 16.224C12.2575 16.352 12.2575 16.512 12.2575 16.704C12.2575 16.832 12.2255 16.96 12.1615 17.088C11.9695 18.112 11.4575 19.072 10.6255 19.968C9.7935 20.8 8.5455 21.216 6.8815 21.216C6.6895 21.216 6.4975 21.216 6.3055 21.216C6.1775 21.216 6.0175 21.184 5.8255 21.12C4.5455 20.928 3.3935 20.352 2.3695 19.392C1.3455 18.368 0.833496 16.736 0.833496 14.496C0.833496 11.808 1.6975 9.248 3.4255 6.816C5.1535 4.32 7.0735 2.304 9.1855 0.767998C9.3775 0.639999 9.5695 0.511997 9.7615 0.383995C9.9535 0.255997 10.1455 0.127998 10.3375 0ZM25.6015 0L27.5215 2.016C25.0255 4.128 23.3615 5.888 22.5295 7.296C21.7615 8.704 21.2815 9.856 21.0895 10.752L21.2815 11.04C21.3455 11.04 21.4095 11.04 21.4735 11.04C21.5375 11.04 21.6335 11.008 21.7615 10.944C21.8255 10.944 21.8895 10.944 21.9535 10.944C22.0175 10.944 22.0815 10.944 22.1455 10.944C23.7455 11.008 25.0255 11.488 25.9855 12.384C27.0095 13.28 27.5215 14.56 27.5215 16.224C27.5215 16.352 27.5215 16.512 27.5215 16.704C27.5215 16.832 27.4895 16.96 27.4255 17.088C27.2335 18.112 26.7215 19.072 25.8895 19.968C25.0575 20.8 23.8095 21.216 22.1455 21.216C21.9535 21.216 21.7615 21.216 21.5695 21.216C21.4415 21.216 21.2815 21.184 21.0895 21.12C19.8095 20.928 18.6575 20.352 17.6335 19.392C16.6095 18.368 16.0975 16.736 16.0975 14.496C16.0975 11.808 16.9615 9.248 18.6895 6.816C20.4175 4.32 22.3375 2.304 24.4495 0.767998C24.6415 0.639999 24.8335 0.511997 25.0255 0.383995C25.2175 0.255997 25.4095 0.127998 25.6015 0Z" fill="#646CF3"/>
</svg>
